<svg id="Layer_1" data-name="Layer 1" xmlns="http://www.w3.org/2000/svg" viewBox="0 0 989.49 626.28"><defs><style>.cls-1{fill:#ffc3bd;}.cls-2{fill:#1a2e35;}.cls-3{opacity:0.2;}.cls-4{fill:#007cff;}.cls-5,.cls-8,.cls-9{fill:#fff;}.cls-5,.cls-7{opacity:0.3;}.cls-6{fill:#ff847f;}.cls-9{opacity:0.4;}.cls-10{fill:#f5f5f5;}</style></defs><title>Untitled-2</title><polygon class="cls-1" points="125.22 600.24 134.86 597.45 131.13 573.77 121.5 576.56 125.22 600.24"/><polygon class="cls-1" points="44.1 614.27 54.11 614.27 56.6 590.44 46.59 590.44 44.1 614.27"/><path class="cls-2" d="M54.93,696.46H42.72a.87.87,0,0,0-.85.7l-2,9.15a1.5,1.5,0,0,0,1.47,1.83c3.93-.07,6.79-.31,11.74-.31,3,0,12.22.33,16.43.33s4.75-4.27,3-4.66c-7.72-1.73-13.53-4.13-16-6.41A2.41,2.41,0,0,0,54.93,696.46Z" transform="translate(0 -83.38)"/><path class="cls-2" d="M134.48,679.7l-10.53,3a.9.9,0,0,0-.64.91l.51,9.36a1.47,1.47,0,0,0,1.87,1.36c3.78-1.17,9.21-3,14-4.37,5.58-1.61,5.56-1.76,12.1-3.66,4-1.14,3.93-5.57,2.17-5.46-8,.48-9.28,1.15-16.93-1.09A4.55,4.55,0,0,0,134.48,679.7Z" transform="translate(0 -83.38)"/><path class="cls-1" d="M67,382.29c3.38,5.76,6.91,11.25,10.65,16.7s7.63,10.77,11.84,16l.79,1,.32.38.41.48c.28.31.6.62.91.91a12.46,12.46,0,0,0,4.5,2.59,14.86,14.86,0,0,0,8.11.08,33,33,0,0,0,10.44-5.1,78.52,78.52,0,0,0,15-14l-5.12-5.66c-2.51,1.7-5.15,3.5-7.76,5.08a82.42,82.42,0,0,1-7.86,4.37,24.06,24.06,0,0,1-7.15,2.43c-.93.11-1.54-.11-1.35-.18a.74.74,0,0,1,.4.13s.06,0,.08,0h0l-.07-.1-.66-1c-3.51-5.24-7-10.63-10.37-16L79.93,374.07Z" transform="translate(0 -83.38)"/><path class="cls-2" d="M73.82,369.92C79.63,372.2,82.41,376,92,389L76.43,407.24c-2.3-2.62-9.08-11.39-12.28-14.92C58.74,386.37,62.68,365.52,73.82,369.92Z" transform="translate(0 -83.38)"/><path class="cls-1" d="M123.44,398.11l3.88-10.21,8.2,8.45a10.84,10.84,0,0,1-6.66,5.86Z" transform="translate(0 -83.38)"/><polygon class="cls-1" points="131.85 298.03 138.21 305.77 135.53 312.97 127.32 304.52 131.85 298.03"/><polygon class="cls-3" points="131.13 573.78 133.05 585.98 123.41 588.77 121.49 576.57 131.13 573.78"/><polygon class="cls-3" points="46.59 590.45 56.6 590.45 55.31 602.73 45.3 602.73 46.59 590.45"/><path class="cls-2" d="M17.1,379.34a235.58,235.58,0,0,1,10,32.9c1.81,7.81,3.21,15.3,4.31,22.12,2.59,16,3.59,28.27,4.51,32.36l52.68-9.94c-8.82-80.37-16.25-87.36-16.25-87.36a101.14,101.14,0,0,0-12.88-.15q-1.36.08-2.76.21c-6,.57-15.73,2.63-22.39,4.23-1.41.34-2.82.72-4.19,1.11C23.16,376.83,17.1,379.34,17.1,379.34Z" transform="translate(0 -83.38)"/><path class="cls-3" d="M32.12,392.5a44.3,44.3,0,0,1-4,24.4c-.32-1.54-.67-3.09-1-4.66-1.36-5.87-2.95-11.93-4.84-18Z" transform="translate(0 -83.38)"/><path class="cls-1" d="M31.91,347.38c2.74,7.14,6.57,20.44,2.42,26.33a22.29,22.29,0,0,0,18.53,3.79c6.17-1.31,5.68-5.82,3.86-8-8.39-.46-9.28-6.62-8.91-12.64Z" transform="translate(0 -83.38)"/><path class="cls-3" d="M38.39,351.24l9.42,5.6a23.63,23.63,0,0,0,0,4.21c-3.15.13-8-2.54-8.91-5.78A11.83,11.83,0,0,1,38.39,351.24Z" transform="translate(0 -83.38)"/><path class="cls-2" d="M49.06,318.6c4.5.42,7.66,12.7,5,18.74S38.87,317.66,49.06,318.6Z" transform="translate(0 -83.38)"/><path class="cls-1" d="M26.7,335.71c2.7,9.82,3.8,15.71,9.78,19.73,9,6,20-1.19,20.19-11.65.19-9.41-4.26-23.9-14.59-25.74S24,325.88,26.7,335.71Z" transform="translate(0 -83.38)"/><path class="cls-2" d="M27,343.38c5,3.58,8-8.42,4.35-15.55,7.16-.23,24.48,1.28,21.5-13.42-2.05-10.14-13.23-8.34-18-4.74-2.62,2-6.22-.76-6.22-.76s2.27,5.18,6.88,3.72c3.17-1,5.49.3,2.88,2-3.79,2.51-21.11-.22-19.41,8.71C14.67,324,20.8,339,27,343.38Z" transform="translate(0 -83.38)"/><path class="cls-2" d="M19.86,324.86s1-4.84-6-1.89C15.65,322.89,18.93,323.22,19.86,324.86Z" transform="translate(0 -83.38)"/><path class="cls-2" d="M47.25,346.75h0A7.22,7.22,0,0,1,41,344.18a.27.27,0,0,1,0-.37.26.26,0,0,1,.36.05,6.82,6.82,0,0,0,5.78,2.37.26.26,0,0,1,.28.24A.27.27,0,0,1,47.25,346.75Z" transform="translate(0 -83.38)"/><path class="cls-1" d="M25.5,345.85a9.47,9.47,0,0,0,5.78,4.44c3.21.82,4.72-2.16,3.75-5.23-.88-2.75-3.61-6.5-6.8-6S24,343.13,25.5,345.85Z" transform="translate(0 -83.38)"/><path class="cls-4" d="M136,666l-16.32,4.72s-15.57-57.13-25.23-92.54c-2.56-9.39-6.5-22.6-11.2-36.62-5.93-17.66-13-36.68-18.76-51.55C58.49,474.38,54,463.32,54,463.32l34.63-6.54s28,81.88,34,112.66C128.9,601.45,136,666,136,666Z" transform="translate(0 -83.38)"/><path class="cls-5" d="M136,666l-16.32,4.72s-15.57-57.13-25.23-92.54c-2.56-9.39-6.5-22.6-11.2-36.62-5.93-17.66-13-36.68-18.76-51.55C58.49,474.38,54,463.32,54,463.32l34.63-6.54s28,81.88,34,112.66C128.9,601.45,136,666,136,666Z" transform="translate(0 -83.38)"/><path class="cls-3" d="M83.29,541.59c-5.93-17.66-13-36.68-18.76-51.55l2.75-8.43C77.09,491.18,83,523.63,83.29,541.59Z" transform="translate(0 -83.38)"/><path class="cls-4" d="M69.93,460.31s5.85,88.24,5.49,118.39c-.39,33-15.48,105-15.48,105H41.6s5.74-64.11,6.29-96.49c.63-36.66-12-120.52-12-120.52Z" transform="translate(0 -83.38)"/><path class="cls-5" d="M69.93,460.31s5.85,88.24,5.49,118.39c-.39,33-15.48,105-15.48,105H41.6s5.74-64.11,6.29-96.49c.63-36.66-12-120.52-12-120.52Z" transform="translate(0 -83.38)"/><polygon class="cls-2" points="62.14 600.76 40.54 600.76 40.54 594.13 64.68 593.7 62.14 600.76"/><polygon class="cls-2" points="137.17 582.74 118.75 588.07 116.05 581.56 137.05 575.44 137.17 582.74"/><path class="cls-2" d="M42,335.2c.17.81.73,1.38,1.24,1.26s.8-.86.63-1.67-.73-1.38-1.25-1.26S41.82,334.39,42,335.2Z" transform="translate(0 -83.38)"/><path class="cls-2" d="M50.91,333.21c.17.81.73,1.37,1.24,1.26s.8-.87.63-1.68-.73-1.37-1.25-1.26S50.74,332.4,50.91,333.21Z" transform="translate(0 -83.38)"/><path class="cls-6" d="M48.16,334.25s2.78,4.27,5.24,6.09c-1.12,1.65-3.77,1.39-3.77,1.39Z" transform="translate(0 -83.38)"/><path class="cls-2" d="M38.59,332.86a.47.47,0,0,0,.41-.28,3.81,3.81,0,0,1,2.64-2.26.48.48,0,0,0,.4-.55.46.46,0,0,0-.54-.41,4.7,4.7,0,0,0-3.36,2.81.49.49,0,0,0,.23.64A.44.44,0,0,0,38.59,332.86Z" transform="translate(0 -83.38)"/><path class="cls-2" d="M54.06,329.2a.49.49,0,0,0,.36-.79,4.64,4.64,0,0,0-3.9-1.94.49.49,0,0,0-.43.53.48.48,0,0,0,.51.44h0A3.73,3.73,0,0,1,53.67,329,.49.49,0,0,0,54.06,329.2Z" transform="translate(0 -83.38)"/><path class="cls-4" d="M58.24,698.26a2.91,2.91,0,0,0,1.93-.53,1.46,1.46,0,0,0,.49-1.28.76.76,0,0,0-.4-.69c-1.12-.59-4.34,1.45-4.71,1.69a.25.25,0,0,0,.07.44A11.72,11.72,0,0,0,58.24,698.26Zm1.49-2.13a.68.68,0,0,1,.31.06.3.3,0,0,1,.15.29,1,1,0,0,1-.32.88c-.55.47-1.86.54-3.56.19A9.29,9.29,0,0,1,59.73,696.13Z" transform="translate(0 -83.38)"/><path class="cls-4" d="M55.68,697.9a.2.2,0,0,0,.11,0c1-.58,3-2.84,2.83-4a.78.78,0,0,0-.75-.64,1.27,1.27,0,0,0-1,.31c-1.17,1-1.41,4-1.42,4.07a.25.25,0,0,0,.24.27Zm2-4.18h.11c.31,0,.33.19.34.25.13.67-1.15,2.38-2.18,3.18.12-.86.44-2.6,1.19-3.22A.85.85,0,0,1,57.7,693.72Z" transform="translate(0 -83.38)"/><path class="cls-4" d="M135.79,680.8h0c1.64-.14,4.51-.55,5.3-1.81a1.41,1.41,0,0,0,.12-1.27.76.76,0,0,0-.55-.51c-1.34-.32-4.67,2.81-5,3.17a.25.25,0,0,0,.14.42Zm4.73-3.13h.07a.28.28,0,0,1,.21.21.92.92,0,0,1-.06.83c-.45.71-2,1.27-4.24,1.52C137.84,679,139.74,677.59,140.52,677.67Z" transform="translate(0 -83.38)"/><path class="cls-4" d="M135.79,680.8a.3.3,0,0,0,.18-.06c1-.87,2.73-3.68,2.25-4.75-.12-.25-.39-.53-1-.41a1.74,1.74,0,0,0-1.16.77c-.94,1.39-.47,4.13-.45,4.25a.25.25,0,0,0,.15.18Zm1.75-4.76a.28.28,0,0,1,.25.15c.29.65-.82,2.78-1.81,3.86a5.84,5.84,0,0,1,.44-3.42,1.24,1.24,0,0,1,.85-.57A1.42,1.42,0,0,1,137.54,676Z" transform="translate(0 -83.38)"/><path class="cls-2" d="M75.94,472.09l24.06-13C96.69,474,110.54,483,122,487.84c5.49,2.31,4.27,9.79-2.11,13.23l-15.65,8.45C85.29,519.76,75.94,472.09,75.94,472.09Z" transform="translate(0 -83.38)"/><path class="cls-4" d="M71.08,474.72l44-23.77c14.3-7.72,19.86-26.05,12.35-40.74h0a29.07,29.07,0,0,0-39.65-12.69l-44,23.77c-14.3,7.72-19.86,26-12.35,40.74h0A29.08,29.08,0,0,0,71.08,474.72Z" transform="translate(0 -83.38)"/><path class="cls-7" d="M71.08,474.72l44-23.77c14.3-7.72,19.86-26.05,12.35-40.74h0a29.07,29.07,0,0,0-39.65-12.69l-44,23.77c-14.3,7.72-19.86,26-12.35,40.74h0A29.08,29.08,0,0,0,71.08,474.72Z" transform="translate(0 -83.38)"/><path class="cls-8" d="M45.48,431.79,58,425.05a3,3,0,0,0,1.23-4h0a2.89,2.89,0,0,0-3.94-1.26l-12.49,6.74a3.06,3.06,0,0,0-1.23,4.05h0A2.89,2.89,0,0,0,45.48,431.79Z" transform="translate(0 -83.38)"/><path class="cls-8" d="M66.22,420.6l6.24-3.36a3.06,3.06,0,0,0,1.22-4.05h0a2.88,2.88,0,0,0-3.93-1.25l-6.24,3.36a3,3,0,0,0-1.23,4h0A2.89,2.89,0,0,0,66.22,420.6Z" transform="translate(0 -83.38)"/><path class="cls-4" d="M195.23,436.44l-92.45,33.29C95,473.92,58,401.49,65.77,397.3L144.91,338Z" transform="translate(0 -83.38)"/><path class="cls-3" d="M169.73,403.78a223.53,223.53,0,0,0,14.66,23.12l-92,33.5a196.14,196.14,0,0,1-11.91-19.86Z" transform="translate(0 -83.38)"/><path class="cls-2" d="M162.93,391.08c13.89,27.18,28.35,47.49,32.3,45.36s-4.12-25.89-18-53.07-28.35-47.5-32.3-45.37S149,363.89,162.93,391.08Z" transform="translate(0 -83.38)"/><path class="cls-1" d="M16.25,385c-1.11,1.7-2,3.16-2.9,4.77s-1.75,3.17-2.59,4.77c-1.66,3.22-3.18,6.51-4.55,9.91a101.88,101.88,0,0,0-3.63,10.48,72.42,72.42,0,0,0-2.3,11.24c-.06.48-.1,1-.15,1.47l-.07.74,0,.67c0,.26,0,.52,0,.78a12.75,12.75,0,0,0,1.41,5.56,17.36,17.36,0,0,0,5.36,6,40.93,40.93,0,0,0,10.52,5.27A91.32,91.32,0,0,0,38,451.09l1.56-7.56a166.94,166.94,0,0,1-17.76-7.82A34.25,34.25,0,0,1,14.71,431a3.71,3.71,0,0,1-1.26-1.7.85.85,0,0,1,.21.58c0,.05,0,.09,0,.13v0l.1-.55c.07-.36.12-.72.2-1.09a86.62,86.62,0,0,1,6-17.73c1.31-2.93,2.76-5.84,4.25-8.72q1.11-2.16,2.31-4.28c.78-1.38,1.63-2.88,2.34-4.08Z" transform="translate(0 -83.38)"/><path class="cls-2" d="M6.77,391.53a28.86,28.86,0,0,1,6.48-9.62c5.13-5,14.15-5,18.2,1.3a10.52,10.52,0,0,1,1.18,2.46c1.16,3.57.51,7.5-.73,10.95-3,8.22-6.23,16.37-9.8,24.33l0,.05L1.69,404.14Z" transform="translate(0 -83.38)"/><path class="cls-1" d="M36.14,444.18l8.7-5.4,1.45,13.05s-8.4,2.92-10.4-1.48Z" transform="translate(0 -83.38)"/><polygon class="cls-1" points="54.14 356.85 53.59 366.66 46.29 368.45 44.84 355.39 54.14 356.85"/><path class="cls-4" d="M240.91,329.27a22.48,22.48,0,0,1-8.74-3.49,20.35,20.35,0,0,1-8-10.63,25,25,0,0,0,13.57,1.28c-7.43-1.39-13.95-4.81-18.41-10.25a25,25,0,0,1-5.67-15,30.86,30.86,0,0,0,17,6.43c-6.31-3.94-11.16-9.36-13.59-15.9-2.07-5.58-2.56-10.39-1.16-14.18,9.14,10.12,22.32,14.38,38.54,14.56,0-1.95,0-3.92-.11-5.9h0a20.52,20.52,0,0,1,15-21.12,19.79,19.79,0,0,1,22,9.1,40.09,40.09,0,0,0,9.7-5.7A22.25,22.25,0,0,1,295,268.86a35.53,35.53,0,0,0,8.56-3.59,21.66,21.66,0,0,1-8.65,10c5.19,32.07-14.29,63.46-45.51,71.68a59.68,59.68,0,0,1-30.52,0A56.19,56.19,0,0,0,240.91,329.27Z" transform="translate(0 -83.38)"/><path class="cls-4" d="M389.09,407.16a7.43,7.43,0,0,1-1-2.77,6.5,6.5,0,0,1,.69-4.09,8.1,8.1,0,0,0,2.55,3.44,10.05,10.05,0,0,1-1.57-6.45,7.67,7.67,0,0,1,2.15-4.47,10.15,10.15,0,0,0,2.13,5.33,10.35,10.35,0,0,1,.69-6.5,6.26,6.26,0,0,1,2.9-3.24c-.33,4.26,1.48,8.23,4.82,12.07q.66-.6,1.29-1.26h0a6.07,6.07,0,0,1,7.82-.89,6.44,6.44,0,0,1,2.58,7.05,11.88,11.88,0,0,0,3.29,1.08,6.48,6.48,0,0,1-3.6.74,11.06,11.06,0,0,0,2.59,1.26,6.46,6.46,0,0,1-4,.06,18.73,18.73,0,0,1-25.41,4.32,19.36,19.36,0,0,1-6.38-7.14A17,17,0,0,0,389.09,407.16Z" transform="translate(0 -83.38)"/><path class="cls-4" d="M226.48,403.4a13.91,13.91,0,0,1-2-5.13,12.08,12.08,0,0,1,1.18-7.62,15,15,0,0,0,4.83,6.33,18.58,18.58,0,0,1-3.08-12,14.28,14.28,0,0,1,3.89-8.35,18.75,18.75,0,0,0,4.09,9.84,19.07,19.07,0,0,1,1.12-12.1c1.46-3.08,3.22-5.19,5.31-6.08-.51,7.91,2.94,15.25,9.25,22.3.8-.76,1.59-1.56,2.36-2.37h0a11.28,11.28,0,0,1,14.51-1.86,12,12,0,0,1,4.95,13,22.8,22.8,0,0,0,6.14,1.92,12.09,12.09,0,0,1-6.66,1.47,20.73,20.73,0,0,0,4.83,2.26,11.85,11.85,0,0,1-7.48.22,34.8,34.8,0,0,1-47.1,8.67,35.9,35.9,0,0,1-12-13.1A31.42,31.42,0,0,0,226.48,403.4Z" transform="translate(0 -83.38)"/><path class="cls-4" d="M330.06,364.45a16.11,16.11,0,0,1-4.66-4.68,14.55,14.55,0,0,1-2.29-9,17.74,17.74,0,0,0,8.34,4.61,22,22,0,0,1-9.05-11.7,17.55,17.55,0,0,1,.36-11.2,22.06,22.06,0,0,0,9.18,8.87,23,23,0,0,1-4.47-14c.16-4.14,1.12-7.35,3-9.39,3.16,9,10.45,15.44,20.77,20.1.53-1.24,1-2.51,1.5-3.8h0A13.86,13.86,0,0,1,368,325a14.1,14.1,0,0,1,11.65,12,27.16,27.16,0,0,0,7.71-.93,15,15,0,0,1-6.69,4.95,24.35,24.35,0,0,0,6.43.1,14.66,14.66,0,0,1-8.19,4c-5.19,22-26,36.57-48.1,33.09a42.1,42.1,0,0,1-19.52-8.52A38.09,38.09,0,0,0,330.06,364.45Z" transform="translate(0 -83.38)"/><path class="cls-7" d="M330.06,364.45a16.11,16.11,0,0,1-4.66-4.68,14.55,14.55,0,0,1-2.29-9,17.74,17.74,0,0,0,8.34,4.61,22,22,0,0,1-9.05-11.7,17.55,17.55,0,0,1,.36-11.2,22.06,22.06,0,0,0,9.18,8.87,23,23,0,0,1-4.47-14c.16-4.14,1.12-7.35,3-9.39,3.16,9,10.45,15.44,20.77,20.1.53-1.24,1-2.51,1.5-3.8h0A13.86,13.86,0,0,1,368,325a14.1,14.1,0,0,1,11.65,12,27.16,27.16,0,0,0,7.71-.93,15,15,0,0,1-6.69,4.95,24.35,24.35,0,0,0,6.43.1,14.66,14.66,0,0,1-8.19,4c-5.19,22-26,36.57-48.1,33.09a42.1,42.1,0,0,1-19.52-8.52A38.09,38.09,0,0,0,330.06,364.45Z" transform="translate(0 -83.38)"/><path class="cls-4" d="M179.5,347a6.86,6.86,0,0,1-2.59-1.29,6.35,6.35,0,0,1-2.2-3.47,7.72,7.72,0,0,0,4.14.74,9.48,9.48,0,0,1-5.4-3.62,7.72,7.72,0,0,1-1.37-4.77,9.55,9.55,0,0,0,5.07,2.42,10,10,0,0,1-3.79-5.24,6.46,6.46,0,0,1,0-4.38c2.56,3.34,6.5,5,11.48,5.47,0-.6.09-1.2.11-1.81h0a6.29,6.29,0,0,1,5.13-6.1,6.14,6.14,0,0,1,6.53,3.37,12.19,12.19,0,0,0,3.11-1.5,6.81,6.81,0,0,1-2.14,3,11.11,11.11,0,0,0,2.72-.88,6.62,6.62,0,0,1-2.9,2.84,19.43,19.43,0,0,1-15.73,20.83,18.47,18.47,0,0,1-9.37-.78A17.09,17.09,0,0,0,179.5,347Z" transform="translate(0 -83.38)"/><path class="cls-7" d="M179.5,347a6.86,6.86,0,0,1-2.59-1.29,6.35,6.35,0,0,1-2.2-3.47,7.72,7.72,0,0,0,4.14.74,9.48,9.48,0,0,1-5.4-3.62,7.72,7.72,0,0,1-1.37-4.77,9.55,9.55,0,0,0,5.07,2.42,10,10,0,0,1-3.79-5.24,6.46,6.46,0,0,1,0-4.38c2.56,3.34,6.5,5,11.48,5.47,0-.6.09-1.2.11-1.81h0a6.29,6.29,0,0,1,5.13-6.1,6.14,6.14,0,0,1,6.53,3.37,12.19,12.19,0,0,0,3.11-1.5,6.81,6.81,0,0,1-2.14,3,11.11,11.11,0,0,0,2.72-.88,6.62,6.62,0,0,1-2.9,2.84,19.43,19.43,0,0,1-15.73,20.83,18.47,18.47,0,0,1-9.37-.78A17.09,17.09,0,0,0,179.5,347Z" transform="translate(0 -83.38)"/><path class="cls-4" d="M303.22,445.8a10.65,10.65,0,0,1-1.7-3.91,9.4,9.4,0,0,1,.74-6,11.64,11.64,0,0,0,3.92,4.82,14.45,14.45,0,0,1-2.7-9.23,11.18,11.18,0,0,1,2.82-6.6,14.56,14.56,0,0,0,3.42,7.56,14.9,14.9,0,0,1,.58-9.44c1.05-2.44,2.37-4.12,4-4.87-.21,6.17,2.65,11.79,7.73,17.11.61-.62,1.2-1.25,1.78-1.91h0A8.77,8.77,0,0,1,335,431.55a9.31,9.31,0,0,1,4.18,10A18,18,0,0,0,344,442.9a9.41,9.41,0,0,1-5.17,1.31,15.7,15.7,0,0,0,3.84,1.64,9.24,9.24,0,0,1-5.81.36,27.12,27.12,0,0,1-36.43,8,27.81,27.81,0,0,1-9.67-9.89A24.22,24.22,0,0,0,303.22,445.8Z" transform="translate(0 -83.38)"/><path class="cls-9" d="M303.22,445.8a10.65,10.65,0,0,1-1.7-3.91,9.4,9.4,0,0,1,.74-6,11.64,11.64,0,0,0,3.92,4.82,14.45,14.45,0,0,1-2.7-9.23,11.18,11.18,0,0,1,2.82-6.6,14.56,14.56,0,0,0,3.42,7.56,14.9,14.9,0,0,1,.58-9.44c1.05-2.44,2.37-4.12,4-4.87-.21,6.17,2.65,11.79,7.73,17.11.61-.62,1.2-1.25,1.78-1.91h0A8.77,8.77,0,0,1,335,431.55a9.31,9.31,0,0,1,4.18,10A18,18,0,0,0,344,442.9a9.41,9.41,0,0,1-5.17,1.31,15.7,15.7,0,0,0,3.84,1.64,9.24,9.24,0,0,1-5.81.36,27.12,27.12,0,0,1-36.43,8,27.81,27.81,0,0,1-9.67-9.89A24.22,24.22,0,0,0,303.22,445.8Z" transform="translate(0 -83.38)"/><path class="cls-4" d="M429.06,345.75a10.11,10.11,0,0,1-2.88-2.91,9,9,0,0,1-1.4-5.63,11,11,0,0,0,5.21,2.9,13.66,13.66,0,0,1-5.64-7.32,10.94,10.94,0,0,1,.26-7,13.7,13.7,0,0,0,5.7,5.56,14.35,14.35,0,0,1-2.75-8.72c.11-2.58.71-4.58,1.9-5.84,2,5.63,6.47,9.65,12.89,12.58.33-.77.64-1.56.94-2.36h0a8.64,8.64,0,0,1,9.49-5.75,8.81,8.81,0,0,1,7.23,7.5,17,17,0,0,0,4.8-.56,9.27,9.27,0,0,1-4.2,3.06,15.1,15.1,0,0,0,4,.09,9.12,9.12,0,0,1-5.11,2.44c-3.29,13.67-16.27,22.71-30.06,20.48a26.3,26.3,0,0,1-12.13-5.37A23.69,23.69,0,0,0,429.06,345.75Z" transform="translate(0 -83.38)"/><path class="cls-9" d="M429.06,345.75a10.11,10.11,0,0,1-2.88-2.91,9,9,0,0,1-1.4-5.63,11,11,0,0,0,5.21,2.9,13.66,13.66,0,0,1-5.64-7.32,10.94,10.94,0,0,1,.26-7,13.7,13.7,0,0,0,5.7,5.56,14.35,14.35,0,0,1-2.75-8.72c.11-2.58.71-4.58,1.9-5.84,2,5.63,6.47,9.65,12.89,12.58.33-.77.64-1.56.94-2.36h0a8.64,8.64,0,0,1,9.49-5.75,8.81,8.81,0,0,1,7.23,7.5,17,17,0,0,0,4.8-.56,9.27,9.27,0,0,1-4.2,3.06,15.1,15.1,0,0,0,4,.09,9.12,9.12,0,0,1-5.11,2.44c-3.29,13.67-16.27,22.71-30.06,20.48a26.3,26.3,0,0,1-12.13-5.37A23.69,23.69,0,0,0,429.06,345.75Z" transform="translate(0 -83.38)"/><path class="cls-4" d="M350.66,273.29a13.5,13.5,0,0,1-5.25-2,12.15,12.15,0,0,1-4.92-6.25,14.91,14.91,0,0,0,8.17.57,18.36,18.36,0,0,1-11.18-5.88,14.94,14.94,0,0,1-3.59-8.91,18.55,18.55,0,0,0,10.28,3.61,19.29,19.29,0,0,1-8.34-9.33c-1.31-3.31-1.67-6.18-.88-8.47,5.6,5.93,13.54,8.3,23.25,8.19,0-1.17-.07-2.34-.14-3.53h0a12.31,12.31,0,0,1,8.71-12.84,11.84,11.84,0,0,1,13.29,5.15,24.49,24.49,0,0,0,5.72-3.54,13.18,13.18,0,0,1-3.56,6.33,21.74,21.74,0,0,0,5.1-2.28,13,13,0,0,1-5.05,6.1c3.52,19.12-7.73,38.17-26.31,43.52a35.76,35.76,0,0,1-18.26.43A33.62,33.62,0,0,0,350.66,273.29Z" transform="translate(0 -83.38)"/><path class="cls-9" d="M350.66,273.29a13.5,13.5,0,0,1-5.25-2,12.15,12.15,0,0,1-4.92-6.25,14.91,14.91,0,0,0,8.17.57,18.36,18.36,0,0,1-11.18-5.88,14.94,14.94,0,0,1-3.59-8.91,18.55,18.55,0,0,0,10.28,3.61,19.29,19.29,0,0,1-8.34-9.33c-1.31-3.31-1.67-6.18-.88-8.47,5.6,5.93,13.54,8.3,23.25,8.19,0-1.17-.07-2.34-.14-3.53h0a12.31,12.31,0,0,1,8.71-12.84,11.84,11.84,0,0,1,13.29,5.15,24.49,24.49,0,0,0,5.72-3.54,13.18,13.18,0,0,1-3.56,6.33,21.74,21.74,0,0,0,5.1-2.28,13,13,0,0,1-5.05,6.1c3.52,19.12-7.73,38.17-26.31,43.52a35.76,35.76,0,0,1-18.26.43A33.62,33.62,0,0,0,350.66,273.29Z" transform="translate(0 -83.38)"/><ellipse id="_Path_" data-name="&lt;Path&gt;" class="cls-10" cx="782.42" cy="12.09" rx="207.07" ry="12.09"/><path class="cls-4" d="M701.84,418.3a21.42,21.42,0,0,0,8.4-3.49,20.45,20.45,0,0,0,7.68-10.63,23.18,23.18,0,0,1-13,1.27c7.14-1.39,13.4-4.81,17.69-10.25a25.67,25.67,0,0,0,5.45-15,29,29,0,0,1-16.37,6.42,31.84,31.84,0,0,0,13.06-15.9c2-5.58,2.47-10.38,1.12-14.17-8.78,10.11-21.44,14.37-37,14.56q0-2.93.1-5.91h0c.52-9.63-5.36-18.63-14.43-21.12-8.35-2.29-16.83,1.65-21.14,9.1a38.08,38.08,0,0,1-9.31-5.69,22.38,22.38,0,0,0,5.89,10.42,33.28,33.28,0,0,1-8.22-3.59,21.46,21.46,0,0,0,8.31,10c-5,32.08,13.73,63.46,43.73,71.69a55.36,55.36,0,0,0,29.32,0A54.6,54.6,0,0,1,701.84,418.3Z" transform="translate(0 -83.38)"/><path class="cls-4" d="M559.46,496.19a7.76,7.76,0,0,0,1-2.78,6.7,6.7,0,0,0-.67-4.09,8.14,8.14,0,0,1-2.45,3.45,10.3,10.3,0,0,0,1.51-6.46,7.84,7.84,0,0,0-2.06-4.47,10.43,10.43,0,0,1-2,5.33,10.71,10.71,0,0,0-.66-6.5,6.1,6.1,0,0,0-2.79-3.23c.32,4.25-1.42,8.23-4.63,12.06-.42-.4-.83-.82-1.24-1.25h0a5.68,5.68,0,0,0-7.52-.9,6.59,6.59,0,0,0-2.47,7.06,11.8,11.8,0,0,1-3.16,1.08,6,6,0,0,0,3.45.74,10.5,10.5,0,0,1-2.48,1.25,5.84,5.84,0,0,0,3.87.06,17.53,17.53,0,0,0,24.41,4.32,19,19,0,0,0,6.13-7.14A15.62,15.62,0,0,1,559.46,496.19Z" transform="translate(0 -83.38)"/><path class="cls-4" d="M715.7,492.42a14,14,0,0,0,1.94-5.13,12.43,12.43,0,0,0-1.13-7.62,15.11,15.11,0,0,1-4.64,6.34,19.18,19.18,0,0,0,3-11.95,14.55,14.55,0,0,0-3.74-8.36,19.22,19.22,0,0,1-3.93,9.85,19.77,19.77,0,0,0-1.08-12.1c-1.39-3.09-3.09-5.2-5.1-6.09.5,7.91-2.82,15.26-8.89,22.3-.76-.76-1.52-1.55-2.27-2.37h0a10.53,10.53,0,0,0-13.94-1.86,12.21,12.21,0,0,0-4.76,13,21.05,21.05,0,0,1-5.9,1.92,11.17,11.17,0,0,0,6.4,1.47,19.16,19.16,0,0,1-4.64,2.27,11.07,11.07,0,0,0,7.18.22c10.59,14.86,30.23,18.85,45.26,8.67A35.48,35.48,0,0,0,731,489.91,29.13,29.13,0,0,1,715.7,492.42Z" transform="translate(0 -83.38)"/><path class="cls-4" d="M616.18,453.47a16.08,16.08,0,0,0,4.48-4.67,15,15,0,0,0,2.19-9,16.81,16.81,0,0,1-8,4.62,21.88,21.88,0,0,0,8.7-11.71,18.19,18.19,0,0,0-.35-11.2,21.62,21.62,0,0,1-8.82,8.88,23.67,23.67,0,0,0,4.3-14c-.15-4.15-1.07-7.36-2.9-9.39-3,9-10,15.44-20,20.1-.51-1.25-1-2.51-1.44-3.81h0c-2.11-6.31-8.17-10.34-14.6-9.29a13.86,13.86,0,0,0-11.19,12,25.45,25.45,0,0,1-7.41-.93,14.28,14.28,0,0,0,6.43,4.94,22.12,22.12,0,0,1-6.18.1,13.81,13.81,0,0,0,7.87,4c5,21.95,24.94,36.56,46.21,33.08a39.69,39.69,0,0,0,18.76-8.52A35.53,35.53,0,0,1,616.18,453.47Z" transform="translate(0 -83.38)"/><path class="cls-7" d="M616.18,453.47a16.08,16.08,0,0,0,4.48-4.67,15,15,0,0,0,2.19-9,16.81,16.81,0,0,1-8,4.62,21.88,21.88,0,0,0,8.7-11.71,18.19,18.19,0,0,0-.35-11.2,21.62,21.62,0,0,1-8.82,8.88,23.67,23.67,0,0,0,4.3-14c-.15-4.15-1.07-7.36-2.9-9.39-3,9-10,15.44-20,20.1-.51-1.25-1-2.51-1.44-3.81h0c-2.11-6.31-8.17-10.34-14.6-9.29a13.86,13.86,0,0,0-11.19,12,25.45,25.45,0,0,1-7.41-.93,14.28,14.28,0,0,0,6.43,4.94,22.12,22.12,0,0,1-6.18.1,13.81,13.81,0,0,0,7.87,4c5,21.95,24.94,36.56,46.21,33.08a39.69,39.69,0,0,0,18.76-8.52A35.53,35.53,0,0,1,616.18,453.47Z" transform="translate(0 -83.38)"/><path class="cls-4" d="M760.84,436a6.72,6.72,0,0,0,2.5-1.3,6.37,6.37,0,0,0,2.1-3.47,7.13,7.13,0,0,1-4,.74,9.14,9.14,0,0,0,5.19-3.62,8,8,0,0,0,1.32-4.76,9.12,9.12,0,0,1-4.87,2.41,10,10,0,0,0,3.63-5.23,6.64,6.64,0,0,0,0-4.38c-2.46,3.34-6.24,5-11,5.46-.05-.59-.09-1.2-.11-1.81h0a6.23,6.23,0,0,0-4.93-6.09,5.82,5.82,0,0,0-6.27,3.36,11.54,11.54,0,0,1-3-1.5,6.82,6.82,0,0,0,2.06,3,10,10,0,0,1-2.61-.88,6.47,6.47,0,0,0,2.79,2.85c-.78,10,5.71,19.11,15.11,20.82a17,17,0,0,0,9-.78A16.53,16.53,0,0,1,760.84,436Z" transform="translate(0 -83.38)"/><path class="cls-7" d="M760.84,436a6.72,6.72,0,0,0,2.5-1.3,6.37,6.37,0,0,0,2.1-3.47,7.13,7.13,0,0,1-4,.74,9.14,9.14,0,0,0,5.19-3.62,8,8,0,0,0,1.32-4.76,9.12,9.12,0,0,1-4.87,2.41,10,10,0,0,0,3.63-5.23,6.64,6.64,0,0,0,0-4.38c-2.46,3.34-6.24,5-11,5.46-.05-.59-.09-1.2-.11-1.81h0a6.23,6.23,0,0,0-4.93-6.09,5.82,5.82,0,0,0-6.27,3.36,11.54,11.54,0,0,1-3-1.5,6.82,6.82,0,0,0,2.06,3,10,10,0,0,1-2.61-.88,6.47,6.47,0,0,0,2.79,2.85c-.78,10,5.71,19.11,15.11,20.82a17,17,0,0,0,9-.78A16.53,16.53,0,0,1,760.84,436Z" transform="translate(0 -83.38)"/><path class="cls-4" d="M642,534.83a10.82,10.82,0,0,0,1.63-3.92,9.64,9.64,0,0,0-.71-5.95,11.74,11.74,0,0,1-3.77,4.82,14.88,14.88,0,0,0,2.6-9.23A11.36,11.36,0,0,0,639,514a14.89,14.89,0,0,1-3.29,7.56,15.5,15.5,0,0,0-.55-9.45c-1-2.44-2.29-4.12-3.83-4.87.2,6.17-2.55,11.79-7.43,17.11-.58-.62-1.15-1.25-1.71-1.91h0a8.2,8.2,0,0,0-10.8-1.82,9.45,9.45,0,0,0-4,10,16.42,16.42,0,0,1-4.63,1.34,8.8,8.8,0,0,0,5,1.3,15.07,15.07,0,0,1-3.68,1.65,8.6,8.6,0,0,0,5.58.36c7.88,11.84,23.07,15.47,35,8a27.28,27.28,0,0,0,9.29-9.88A22.62,22.62,0,0,1,642,534.83Z" transform="translate(0 -83.38)"/><path class="cls-9" d="M642,534.83a10.82,10.82,0,0,0,1.63-3.92,9.64,9.64,0,0,0-.71-5.95,11.74,11.74,0,0,1-3.77,4.82,14.88,14.88,0,0,0,2.6-9.23A11.36,11.36,0,0,0,639,514a14.89,14.89,0,0,1-3.29,7.56,15.5,15.5,0,0,0-.55-9.45c-1-2.44-2.29-4.12-3.83-4.87.2,6.17-2.55,11.79-7.43,17.11-.58-.62-1.15-1.25-1.71-1.91h0a8.2,8.2,0,0,0-10.8-1.82,9.45,9.45,0,0,0-4,10,16.42,16.42,0,0,1-4.63,1.34,8.8,8.8,0,0,0,5,1.3,15.07,15.07,0,0,1-3.68,1.65,8.6,8.6,0,0,0,5.58.36c7.88,11.84,23.07,15.47,35,8a27.28,27.28,0,0,0,9.29-9.88A22.62,22.62,0,0,1,642,534.83Z" transform="translate(0 -83.38)"/><path class="cls-4" d="M521.05,434.77a9.94,9.94,0,0,0,2.77-2.9,9.36,9.36,0,0,0,1.35-5.64,10.49,10.49,0,0,1-5,2.91,13.69,13.69,0,0,0,5.41-7.33,11.34,11.34,0,0,0-.25-7,13.44,13.44,0,0,1-5.48,5.55,14.73,14.73,0,0,0,2.65-8.71c-.11-2.59-.69-4.58-1.83-5.84-1.87,5.63-6.22,9.64-12.39,12.58-.31-.78-.62-1.56-.9-2.37h0a8.27,8.27,0,0,0-9.12-5.74,8.65,8.65,0,0,0-6.94,7.49,16.13,16.13,0,0,1-4.62-.55,9.08,9.08,0,0,0,4,3.06,14.31,14.31,0,0,1-3.86.08,8.63,8.63,0,0,0,4.9,2.45c3.17,13.66,15.64,22.7,28.89,20.47A24.73,24.73,0,0,0,532.32,438,22.13,22.13,0,0,1,521.05,434.77Z" transform="translate(0 -83.38)"/><path class="cls-9" d="M521.05,434.77a9.94,9.94,0,0,0,2.77-2.9,9.36,9.36,0,0,0,1.35-5.64,10.49,10.49,0,0,1-5,2.91,13.69,13.69,0,0,0,5.41-7.33,11.34,11.34,0,0,0-.25-7,13.44,13.44,0,0,1-5.48,5.55,14.73,14.73,0,0,0,2.65-8.71c-.11-2.59-.69-4.58-1.83-5.84-1.87,5.63-6.22,9.64-12.39,12.58-.31-.78-.62-1.56-.9-2.37h0a8.27,8.27,0,0,0-9.12-5.74,8.65,8.65,0,0,0-6.94,7.49,16.13,16.13,0,0,1-4.62-.55,9.08,9.08,0,0,0,4,3.06,14.31,14.31,0,0,1-3.86.08,8.63,8.63,0,0,0,4.9,2.45c3.17,13.66,15.64,22.7,28.89,20.47A24.73,24.73,0,0,0,532.32,438,22.13,22.13,0,0,1,521.05,434.77Z" transform="translate(0 -83.38)"/><path class="cls-4" d="M596.38,362.31a12.81,12.81,0,0,0,5-1.94,12.23,12.23,0,0,0,4.73-6.26,13.83,13.83,0,0,1-7.86.57,17.38,17.38,0,0,0,10.75-5.87,15.32,15.32,0,0,0,3.45-8.92,17.39,17.39,0,0,1-9.88,3.61,19,19,0,0,0,8-9.33c1.25-3.31,1.6-6.18.84-8.47-5.38,5.93-13,8.3-22.34,8.19,0-1.16.06-2.34.14-3.53h0a12.29,12.29,0,0,0-8.37-12.84,11.17,11.17,0,0,0-12.76,5.15,23,23,0,0,1-5.5-3.54,13.37,13.37,0,0,0,3.42,6.33,19.58,19.58,0,0,1-4.9-2.28,12.84,12.84,0,0,0,4.85,6.1c-3.38,19.13,7.43,38.17,25.28,43.52a33,33,0,0,0,17.54.44A32.75,32.75,0,0,1,596.38,362.31Z" transform="translate(0 -83.38)"/><path class="cls-9" d="M596.38,362.31a12.81,12.81,0,0,0,5-1.94,12.23,12.23,0,0,0,4.73-6.26,13.83,13.83,0,0,1-7.86.57,17.38,17.38,0,0,0,10.75-5.87,15.32,15.32,0,0,0,3.45-8.92,17.39,17.39,0,0,1-9.88,3.61,19,19,0,0,0,8-9.33c1.25-3.31,1.6-6.18.84-8.47-5.38,5.93-13,8.3-22.34,8.19,0-1.16.06-2.34.14-3.53h0a12.29,12.29,0,0,0-8.37-12.84,11.17,11.17,0,0,0-12.76,5.15,23,23,0,0,1-5.5-3.54,13.37,13.37,0,0,0,3.42,6.33,19.58,19.58,0,0,1-4.9-2.28,12.84,12.84,0,0,0,4.85,6.1c-3.38,19.13,7.43,38.17,25.28,43.52a33,33,0,0,0,17.54.44A32.75,32.75,0,0,1,596.38,362.31Z" transform="translate(0 -83.38)"/><polygon class="cls-1" points="800.33 610.47 794.1 608.67 796.51 593.42 802.74 595.22 800.33 610.47"/><polygon class="cls-1" points="852.78 619.51 846.3 619.51 844.69 604.16 851.16 604.16 852.78 619.51"/><path class="cls-2" d="M845.77,702.13h7.89a.56.56,0,0,1,.55.45l1.28,5.89a1,1,0,0,1-1,1.18c-2.53,0-4.39-.2-7.59-.2-2,0-7.9.21-10.61.21s-3.08-2.75-2-3c5-1.11,8.74-2.65,10.34-4.12A1.53,1.53,0,0,1,845.77,702.13Z" transform="translate(0 -83.38)"/><path class="cls-2" d="M794.35,691.33l6.8,2a.57.57,0,0,1,.41.59l-.33,6a1,1,0,0,1-1.21.88c-2.44-.76-5.94-1.93-9-2.82-3.61-1-3.59-1.13-7.82-2.35-2.56-.74-2.54-3.6-1.41-3.53,5.18.32,6,.75,11-.7A3.05,3.05,0,0,1,794.35,691.33Z" transform="translate(0 -83.38)"/><path class="cls-1" d="M838,499.71c-2.19,3.71-4.48,7.25-6.89,10.76s-4.94,6.94-7.66,10.28l-.51.63-.2.25-.27.31c-.18.2-.39.4-.59.59a8,8,0,0,1-2.91,1.66,9.59,9.59,0,0,1-5.24,0,21.56,21.56,0,0,1-6.75-3.28,50.56,50.56,0,0,1-9.67-9.06l3.31-3.64c1.61,1.1,3.32,2.25,5,3.27a51.51,51.51,0,0,0,5.08,2.82,15.5,15.5,0,0,0,4.62,1.56c.6.07,1-.07.87-.11s-.17,0-.25.08,0,0,0,0h0l0-.06.42-.64c2.27-3.37,4.5-6.85,6.7-10.33l6.62-10.47Z" transform="translate(0 -83.38)"/><path class="cls-2" d="M833.56,491.74c-3.76,1.47-5.55,3.92-11.74,12.31l10,11.73c1.49-1.69,5.87-7.34,7.94-9.61C843.31,502.34,840.76,488.91,833.56,491.74Z" transform="translate(0 -83.38)"/><path class="cls-1" d="M801.48,509.9,799,503.32l-5.3,5.45a7,7,0,0,0,4.31,3.78Z" transform="translate(0 -83.38)"/><polygon class="cls-1" points="796.04 415.76 791.94 420.75 793.67 425.38 798.97 419.94 796.04 415.76"/><polygon class="cls-3" points="796.51 593.42 795.27 601.29 801.5 603.08 802.74 595.22 796.51 593.42"/><polygon class="cls-3" points="851.17 604.16 844.69 604.16 845.52 612.08 852 612.08 851.17 604.16"/><path class="cls-2" d="M870.23,497.81A150.48,150.48,0,0,0,863.76,519c-1.17,5-2.08,9.87-2.79,14.26-1.67,10.29-2.32,18.21-2.92,20.85l-34-6.41c5.7-51.78,10.5-56.29,10.5-56.29a67.59,67.59,0,0,1,8.33-.09c.59,0,1.18.08,1.78.14a124.18,124.18,0,0,1,14.48,2.72c.91.22,1.82.46,2.71.72A88.86,88.86,0,0,1,870.23,497.81Z" transform="translate(0 -83.38)"/><path class="cls-3" d="M860.52,506.29A28.49,28.49,0,0,0,863.09,522c.21-1,.43-2,.67-3,.88-3.79,1.9-7.69,3.13-11.61Z" transform="translate(0 -83.38)"/><path class="cls-1" d="M860.65,477.22c-1.77,4.6-4.25,13.16-1.56,17a14.42,14.42,0,0,1-12,2.44c-4-.84-3.67-3.75-2.5-5.17,5.43-.29,6-4.26,5.76-8.14Z" transform="translate(0 -83.38)"/><path class="cls-3" d="M856.46,479.71l-6.08,3.6a15.4,15.4,0,0,1,0,2.72c2,.08,5.16-1.64,5.76-3.73A7.52,7.52,0,0,0,856.46,479.71Z" transform="translate(0 -83.38)"/><path class="cls-2" d="M849.56,458.67c-2.9.27-4.94,8.19-3.21,12.08S856.16,458.07,849.56,458.67Z" transform="translate(0 -83.38)"/><path class="cls-1" d="M864,469.69c-1.74,6.34-2.45,10.13-6.32,12.72-5.81,3.89-12.92-.77-13.06-7.51-.12-6.06,2.76-15.4,9.44-16.58S865.77,463.36,864,469.69Z" transform="translate(0 -83.38)"/><path class="cls-2" d="M863.83,474.64c-3.26,2.3-5.2-5.43-2.81-10-4.63-.15-15.83.82-13.91-8.65,1.33-6.53,8.56-5.37,11.66-3.05,1.7,1.27,4-.49,4-.49s-1.46,3.33-4.45,2.39c-2.05-.64-3.54.2-1.86,1.31,2.46,1.62,13.65-.15,12.55,5.61C871.8,462.13,867.84,471.8,863.83,474.64Z" transform="translate(0 -83.38)"/><path class="cls-2" d="M868.44,462.71s-.64-3.12,3.86-1.22C871.16,461.44,869,461.65,868.44,462.71Z" transform="translate(0 -83.38)"/><path class="cls-2" d="M850.73,476.81h0a4.66,4.66,0,0,0,4-1.66.16.16,0,0,0,0-.23.15.15,0,0,0-.23,0,4.39,4.39,0,0,1-3.74,1.52.18.18,0,0,0-.18.16A.17.17,0,0,0,850.73,476.81Z" transform="translate(0 -83.38)"/><path class="cls-1" d="M864.8,476.23a6.15,6.15,0,0,1-3.74,2.86c-2.08.53-3-1.39-2.42-3.37.57-1.77,2.33-4.19,4.39-3.84A2.83,2.83,0,0,1,864.8,476.23Z" transform="translate(0 -83.38)"/><path class="cls-4" d="M793.34,682.52l10.55,3s10.06-36.8,16.31-59.62c1.66-6.05,4.2-14.56,7.24-23.59,3.83-11.38,8.42-23.64,12.12-33.22,3.91-10.09,6.82-17.22,6.82-17.22L824,547.7s-18.1,52.75-22,72.59C798,640.91,793.34,682.52,793.34,682.52Z" transform="translate(0 -83.38)"/><path class="cls-5" d="M793.34,682.52l10.55,3s10.06-36.8,16.31-59.62c1.66-6.05,4.2-14.56,7.24-23.59,3.83-11.38,8.42-23.64,12.12-33.22,3.91-10.09,6.82-17.22,6.82-17.22L824,547.7s-18.1,52.75-22,72.59C798,640.91,793.34,682.52,793.34,682.52Z" transform="translate(0 -83.38)"/><path class="cls-3" d="M827.44,602.35c3.83-11.38,8.42-23.64,12.12-33.22l-1.77-5.43C831.44,569.86,827.62,590.77,827.44,602.35Z" transform="translate(0 -83.38)"/><path class="cls-4" d="M836.08,550s-3.79,56.86-3.55,76.28c.25,21.27,10,67.68,10,67.68h11.86s-3.71-41.3-4.07-62.16c-.4-23.62,7.73-77.66,7.73-77.66Z" transform="translate(0 -83.38)"/><path class="cls-5" d="M836.08,550s-3.79,56.86-3.55,76.28c.25,21.27,10,67.68,10,67.68h11.86s-3.71-41.3-4.07-62.16c-.4-23.62,7.73-77.66,7.73-77.66Z" transform="translate(0 -83.38)"/><polygon class="cls-2" points="841.11 610.81 855.08 610.81 855.08 606.54 839.47 606.26 841.11 610.81"/><polygon class="cls-2" points="792.61 599.2 804.51 602.63 806.26 598.43 792.68 594.5 792.61 599.2"/><path class="cls-2" d="M854.14,469.37c-.11.52-.47.89-.81.81s-.51-.56-.4-1.08.47-.88.81-.81S854.25,468.85,854.14,469.37Z" transform="translate(0 -83.38)"/><path class="cls-2" d="M848.37,468.09c-.11.52-.47.88-.8.81s-.52-.56-.41-1.08.48-.89.81-.82S848.48,467.56,848.37,468.09Z" transform="translate(0 -83.38)"/><path class="cls-6" d="M850.15,468.75a18.94,18.94,0,0,1-3.39,3.93,2.9,2.9,0,0,0,2.44.89Z" transform="translate(0 -83.38)"/><path class="cls-2" d="M856.34,467.86a.29.29,0,0,1-.27-.18,2.45,2.45,0,0,0-1.7-1.45.32.32,0,0,1-.26-.36.3.3,0,0,1,.34-.27,3.07,3.07,0,0,1,2.17,1.81.31.31,0,0,1-.28.45Z" transform="translate(0 -83.38)"/><path class="cls-2" d="M846.33,465.5a.27.27,0,0,1-.18-.07.32.32,0,0,1,0-.44,3,3,0,0,1,2.52-1.24.31.31,0,0,1,0,.62h0a2.42,2.42,0,0,0-2,1A.3.3,0,0,1,846.33,465.5Z" transform="translate(0 -83.38)"/><path class="cls-4" d="M843.63,703.29a2,2,0,0,1-1.25-.34.94.94,0,0,1-.31-.83.5.5,0,0,1,.26-.45c.72-.37,2.8.94,3,1.09a.17.17,0,0,1,.07.16.18.18,0,0,1-.12.13A7.47,7.47,0,0,1,843.63,703.29Zm-1-1.38a.54.54,0,0,0-.2,0,.23.23,0,0,0-.1.19.66.66,0,0,0,.21.57,3.11,3.11,0,0,0,2.3.12A6.05,6.05,0,0,0,842.67,701.91Z" transform="translate(0 -83.38)"/><path class="cls-4" d="M845.29,703.05a.12.12,0,0,1-.08,0c-.67-.37-2-1.82-1.82-2.56a.49.49,0,0,1,.48-.41.86.86,0,0,1,.66.2c.75.63.9,2.54.91,2.62a.17.17,0,0,1-.07.15ZM844,700.37h-.07c-.2,0-.22.12-.22.16-.08.43.74,1.53,1.41,2.05a3.84,3.84,0,0,0-.77-2.08A.53.53,0,0,0,844,700.37Z" transform="translate(0 -83.38)"/><path class="cls-4" d="M793.5,692h0c-1.06-.09-2.92-.35-3.43-1.17a.91.91,0,0,1-.07-.82.49.49,0,0,1,.35-.33c.87-.2,3,1.81,3.27,2a.17.17,0,0,1,0,.18A.14.14,0,0,1,793.5,692Zm-3.06-2h-.05a.17.17,0,0,0-.13.13.6.6,0,0,0,0,.54c.29.46,1.3.82,2.74,1C792.17,690.9,790.94,690,790.44,690Z" transform="translate(0 -83.38)"/><path class="cls-4" d="M793.5,692a.14.14,0,0,1-.12,0c-.65-.56-1.76-2.37-1.45-3.06.07-.16.25-.34.66-.27a1.14,1.14,0,0,1,.75.5,4.53,4.53,0,0,1,.29,2.74.15.15,0,0,1-.1.12ZM792.36,689a.18.18,0,0,0-.15.1c-.19.41.52,1.79,1.16,2.48a3.74,3.74,0,0,0-.28-2.2.8.8,0,0,0-.55-.37Z" transform="translate(0 -83.38)"/><path class="cls-2" d="M832.19,557.57l-15.55-8.36c2.14,9.58-6.82,15.4-14.24,18.51-3.55,1.48-2.77,6.3,1.36,8.52l10.11,5.44C826.14,588.28,832.19,557.57,832.19,557.57Z" transform="translate(0 -83.38)"/><path class="cls-4" d="M835.33,559.26,806.86,544a19.73,19.73,0,0,1-8-26.25h0a18.82,18.82,0,0,1,25.63-8.18L853,524.84a19.74,19.74,0,0,1,8,26.25h0A18.83,18.83,0,0,1,835.33,559.26Z" transform="translate(0 -83.38)"/><path class="cls-7" d="M835.33,559.26,806.86,544a19.73,19.73,0,0,1-8-26.25h0a18.82,18.82,0,0,1,25.63-8.18L853,524.84a19.74,19.74,0,0,1,8,26.25h0A18.83,18.83,0,0,1,835.33,559.26Z" transform="translate(0 -83.38)"/><path class="cls-8" d="M851.88,531.6l-8.08-4.34a2,2,0,0,1-.79-2.61h0a1.88,1.88,0,0,1,2.55-.81l8.07,4.35a2,2,0,0,1,.8,2.6h0A1.87,1.87,0,0,1,851.88,531.6Z" transform="translate(0 -83.38)"/><path class="cls-8" d="M838.47,524.39l-4-2.17a2,2,0,0,1-.79-2.6h0a1.87,1.87,0,0,1,2.54-.81l4,2.17a2,2,0,0,1,.79,2.6h0A1.87,1.87,0,0,1,838.47,524.39Z" transform="translate(0 -83.38)"/><path class="cls-4" d="M755.07,534.6,814.83,556c5,2.7,28.95-44,23.94-46.66L787.6,471.17Z" transform="translate(0 -83.38)"/><path class="cls-3" d="M771.55,513.55a143,143,0,0,1-9.47,14.9L821.56,550a125.85,125.85,0,0,0,7.7-12.79Z" transform="translate(0 -83.38)"/><path class="cls-2" d="M776,505.37c-9,17.51-18.34,30.6-20.89,29.23s2.67-16.68,11.65-34.2,18.33-30.6,20.88-29.23S784.94,487.86,776,505.37Z" transform="translate(0 -83.38)"/><path class="cls-1" d="M870.78,501.46c.72,1.1,1.29,2,1.87,3.07s1.13,2,1.68,3.08c1.07,2.07,2,4.19,2.94,6.38a64.87,64.87,0,0,1,2.34,6.76A44.22,44.22,0,0,1,881.1,528c0,.31.07.63.1,1l0,.47,0,.43a4.21,4.21,0,0,1,0,.5,8.13,8.13,0,0,1-.91,3.59,11.43,11.43,0,0,1-3.46,3.87,26.78,26.78,0,0,1-6.8,3.39A58.93,58.93,0,0,1,856.72,544l-1-4.87a106.56,106.56,0,0,0,11.49-5,22.51,22.51,0,0,0,4.57-3,2.37,2.37,0,0,0,.82-1.09s-.12.15-.14.38a.21.21,0,0,0,0,.08v0l-.06-.36c0-.23-.08-.46-.13-.7A55.35,55.35,0,0,0,868.34,518c-.85-1.89-1.78-3.76-2.75-5.62-.48-.93-1-1.85-1.49-2.76s-1.05-1.85-1.51-2.63Z" transform="translate(0 -83.38)"/><path class="cls-2" d="M876.91,505.66a18.83,18.83,0,0,0-4.19-6.2c-3.32-3.25-9.15-3.2-11.77.84a6.58,6.58,0,0,0-.76,1.58,11,11,0,0,0,.47,7.06c1.91,5.3,4,10.55,6.34,15.67v0l13.18-10.86Z" transform="translate(0 -83.38)"/><path class="cls-1" d="M857.92,539.59l-5.62-3.49-.94,8.42s5.43,1.87,6.72-1Z" transform="translate(0 -83.38)"/><polygon class="cls-1" points="846.28 453.66 846.64 459.98 851.36 461.13 852.3 452.72 846.28 453.66"/></svg>